<?plantuml 1.2026.2?><svg xmlns="http://www.w3.org/2000/svg" xmlns:xlink="http://www.w3.org/1999/xlink" contentStyleType="text/css" data-diagram-type="DESCRIPTION" height="374px" preserveAspectRatio="none" style="width:1708px;height:374px;background:#FFFFFF;" version="1.1" viewBox="0 0 1708 374" width="1708px" zoomAndPan="magnify"><defs/><g><!--cluster Sistema--><g class="cluster" data-qualified-name="Sistema" data-source-line="11" id="ent0007"><rect fill="none" height="122.58" rx="2.5" ry="2.5" style="stroke:#181818;stroke-width:1;" width="1695" x="7" y="245.64"/><text fill="#000000" font-family="sans-serif" font-size="14" font-weight="bold" lengthAdjust="spacing" textLength="54.9603" x="827.0198" y="262.6059">Sistema</text></g><!--entity Auth--><g class="entity" data-qualified-name="Sistema.Auth" data-source-line="12" id="ent0008"><ellipse cx="1588.9971" cy="317.9334" fill="#F1F1F1" rx="97.2671" ry="21.8534" style="stroke:#181818;stroke-width:0.5;"/><text fill="#000000" font-family="sans-serif" font-size="14" lengthAdjust="spacing" textLength="162.6514" x="1507.6714" y="323.9674">Autenticar-se no sistema</text></g><!--entity ClienteUC1--><g class="entity" data-qualified-name="Sistema.ClienteUC1" data-source-line="14" id="ent0009"><ellipse cx="456.9989" cy="317.9338" fill="#F1F1F1" rx="135.8189" ry="29.5638" style="stroke:#181818;stroke-width:0.5;"/><text fill="#000000" font-family="sans-serif" font-size="14" lengthAdjust="spacing" textLength="247.9391" x="333.0293" y="323.9677">Filtrar prestadores por tipo de servi&#231;o</text></g><!--entity ClienteUC2--><g class="entity" data-qualified-name="Sistema.ClienteUC2" data-source-line="15" id="ent0010"><ellipse cx="155.0029" cy="317.9326" fill="#F1F1F1" rx="131.5629" ry="28.7126" style="stroke:#181818;stroke-width:0.5;"/><text fill="#000000" font-family="sans-serif" font-size="14" lengthAdjust="spacing" textLength="238.7971" x="35.6044" y="323.9665">Publicar necessidade de profissional</text></g><!--entity PrestadorUC1--><g class="entity" data-qualified-name="Sistema.PrestadorUC1" data-source-line="17" id="ent0011"><ellipse cx="1039.0045" cy="317.9309" fill="#F1F1F1" rx="159.4545" ry="34.2909" style="stroke:#181818;stroke-width:0.5;"/><text fill="#000000" font-family="sans-serif" font-size="14" lengthAdjust="spacing" textLength="298.0309" x="889.9891" y="323.9649">Adicionar sua forma&#231;&#227;o t&#233;cnica e profissional</text></g><!--entity PrestadorUC2--><g class="entity" data-qualified-name="Sistema.PrestadorUC2" data-source-line="18" id="ent0012"><ellipse cx="1344.9969" cy="317.9254" fill="#F1F1F1" rx="111.7269" ry="24.7454" style="stroke:#181818;stroke-width:0.5;"/><text fill="#000000" font-family="sans-serif" font-size="14" lengthAdjust="spacing" textLength="195.4393" x="1247.2773" y="323.9593">Aceitar propostas de trabalho</text></g><!--entity PrestadorUC3--><g class="entity" data-qualified-name="Sistema.PrestadorUC3" data-source-line="19" id="ent0013"><ellipse cx="736.0012" cy="317.9322" fill="#F1F1F1" rx="108.5112" ry="24.1022" style="stroke:#181818;stroke-width:0.5;"/><text fill="#000000" font-family="sans-serif" font-size="14" lengthAdjust="spacing" textLength="188.2573" x="641.8725" y="323.9662">Propor or&#231;amento ao cliente</text></g><!--entity Usu?rio--><g class="entity" data-qualified-name="Usu.rio" data-source-line="2" id="ent0002"><ellipse cx="1039.0049" cy="14" fill="#F1F1F1" rx="8" ry="8" style="stroke:#181818;stroke-width:0.5;"/><path d="M1039.0049,22 L1039.0049,49 M1026.0049,30 L1052.0049,30 M1039.0049,49 L1026.0049,64 M1039.0049,49 L1052.0049,64" fill="none" style="stroke:#181818;stroke-width:0.5;"/><text fill="#000000" font-family="sans-serif" font-size="14" lengthAdjust="spacing" textLength="51.3098" x="1013.35" y="80.4659">Usu&#225;rio</text></g><!--entity Cliente--><g class="entity" data-qualified-name="Cliente" data-source-line="3" id="ent0003"><ellipse cx="457.0049" cy="153.07" fill="#F1F1F1" rx="8" ry="8" style="stroke:#181818;stroke-width:0.5;"/><path d="M457.0049,161.07 L457.0049,188.07 M444.0049,169.07 L470.0049,169.07 M457.0049,188.07 L444.0049,203.07 M457.0049,188.07 L470.0049,203.07" fill="none" style="stroke:#181818;stroke-width:0.5;"/><text fill="#000000" font-family="sans-serif" font-size="14" lengthAdjust="spacing" textLength="45.5698" x="434.22" y="219.5359">Cliente</text></g><!--entity Prestador--><g class="entity" data-qualified-name="Prestador" data-source-line="4" id="ent0004"><ellipse cx="1039.0037" cy="153.07" fill="#F1F1F1" rx="8" ry="8" style="stroke:#181818;stroke-width:0.5;"/><path d="M1039.0037,161.07 L1039.0037,188.07 M1026.0037,169.07 L1052.0037,169.07 M1039.0037,188.07 L1026.0037,203.07 M1039.0037,188.07 L1052.0037,203.07" fill="none" style="stroke:#181818;stroke-width:0.5;"/><text fill="#000000" font-family="sans-serif" font-size="14" lengthAdjust="spacing" textLength="135.6875" x="971.16" y="219.5359">Prestador de Servi&#231;o</text></g><!--reverse link Usu?rio to Cliente--><g class="link" data-entity-1="ent0002" data-entity-2="ent0003" data-link-type="extension" data-source-line="7" id="lnk5"><path d="M995.3394,56.3167 C897.6894,79.3167 572.65,155.87 480.16,177.65" fill="none" id="Usu&#225;rio-backto-Cliente" style="stroke:#181818;stroke-width:1;"/><polygon fill="none" points="1012.86,52.19,993.9639,50.4765,996.715,62.1569,1012.86,52.19" style="stroke:#181818;stroke-width:1;"/></g><!--reverse link Usu?rio to Prestador--><g class="link" data-entity-1="ent0002" data-entity-2="ent0004" data-link-type="extension" data-source-line="8" id="lnk6"><path d="M1039,102.95 C1039,121.47 1039,125.56 1039,144.1" fill="none" id="Usu&#225;rio-backto-Prestador" style="stroke:#181818;stroke-width:1;"/><polygon fill="none" points="1039,84.95,1033,102.95,1045,102.95,1039,84.95" style="stroke:#181818;stroke-width:1;"/></g><!--link Usu?rio to Auth--><g class="link" data-entity-1="ent0002" data-entity-2="ent0008" data-link-type="association" data-source-line="23" id="lnk14"><path d="M1064.81,55.44 C1133.42,80.84 1325.22,154.56 1474,237.64 C1505.76,255.37 1539.78,279.55 1562.51,296.53" fill="none" id="Usu&#225;rio-Auth" style="stroke:#181818;stroke-width:1;"/></g><!--link Cliente to ClienteUC1--><g class="link" data-entity-1="ent0003" data-entity-2="ent0009" data-link-type="association" data-source-line="25" id="lnk15"><path d="M457,223.94 C457,244.45 457,269.19 457,287.99" fill="none" id="Cliente-ClienteUC1" style="stroke:#181818;stroke-width:1;"/></g><!--link Cliente to ClienteUC2--><g class="link" data-entity-1="ent0003" data-entity-2="ent0010" data-link-type="association" data-source-line="26" id="lnk16"><path d="M433.76,191.83 C403.39,200.89 348.82,218.16 304,237.64 C268.12,253.23 229.14,274.12 200.05,290.55" fill="none" id="Cliente-ClienteUC2" style="stroke:#181818;stroke-width:1;"/></g><!--link Prestador to PrestadorUC1--><g class="link" data-entity-1="ent0004" data-entity-2="ent0011" data-link-type="association" data-source-line="28" id="lnk17"><path d="M1039,223.94 C1039,242.78 1039,265.18 1039,283.28" fill="none" id="Prestador-PrestadorUC1" style="stroke:#181818;stroke-width:1;"/></g><!--link Prestador to PrestadorUC2--><g class="link" data-entity-1="ent0004" data-entity-2="ent0012" data-link-type="association" data-source-line="29" id="lnk18"><path d="M1107.32,200.89 C1140.81,209.75 1181.31,222.16 1216,237.64 C1250.81,253.18 1287.57,276.55 1312.91,293.9" fill="none" id="Prestador-PrestadorUC2" style="stroke:#181818;stroke-width:1;"/></g><!--link Prestador to PrestadorUC3--><g class="link" data-entity-1="ent0004" data-entity-2="ent0013" data-link-type="association" data-source-line="30" id="lnk19"><path d="M971.04,200.62 C937.44,209.45 896.75,221.91 862,237.64 C827.51,253.25 791.23,276.96 766.5,294.39" fill="none" id="Prestador-PrestadorUC3" style="stroke:#181818;stroke-width:1;"/></g><?plantuml-src TL9BRi8m4Dtx52CsD0iM3RkecuYgQoJ40GPdA9QC9xATgbBRmrHTe1wW9yZ5Eiu7A8KeYXo_UM_UytWAZxGrphI7zekXuW0OsLDGnJeqxQStNAXYOGsvIB9Q2XInOWyLmOhyYn2vW785HqIfwLzD342laLneVqHtb8M7zzaC1kMBtTjQuazZaA-qRm8hJpgYUxO4avK9aVOuWJS5yjoLZVICHgEV1GB74Fg2BBbDw2vJVUMJiT6ZXtfiIm5gYHXDpQbH67BspC7oUd6VzVHbix6f3JZI58AfK3ZorfwtHlxPeRsWvcFhiZ8w5NW83SAM_HxxfB7zravKuPhEyNnE9afD9dOPk6O1knEIL1kqE_x7oaVhgTe3-_Q0Ux76W0owT_cFDC_KnxM1UBBOXUWKpYOiaqp7hDIG6qu35-DNTtEbJbVi_2OamYqaludCrIy0?></g></svg>