<?plantuml 1.2026.2?><svg xmlns="http://www.w3.org/2000/svg" xmlns:xlink="http://www.w3.org/1999/xlink" contentStyleType="text/css" data-diagram-type="SEQUENCE" height="396px" preserveAspectRatio="none" style="width:579px;height:396px;background:#FFFFFF;" version="1.1" viewBox="0 0 579 396" width="579px" zoomAndPan="magnify"><defs/><g><rect fill="none" height="100.0999" style="stroke:#000000;stroke-width:1.5;" width="309.135" x="10" y="196.186"/><g class="participant-lifeline" data-entity-uid="part1" data-qualified-name="Cliente" id="part1-lifeline"><g><title>Cliente</title><rect fill="#000000" fill-opacity="0.00000" height="229.218" width="8" x="41.7849" y="84.0679"/><line style="stroke:#181818;stroke-width:0.5;stroke-dasharray:5,5;" x1="45" x2="45" y1="84.0679" y2="313.2859"/></g></g><g class="participant-lifeline" data-entity-uid="part2" data-qualified-name="S" id="part2-lifeline"><g><title>Sistema</title><rect fill="#000000" fill-opacity="0.00000" height="229.218" width="8" x="272.1861" y="84.0679"/><line style="stroke:#181818;stroke-width:0.5;stroke-dasharray:5,5;" x1="275.2372" x2="275.2372" y1="84.0679" y2="313.2859"/></g></g><g class="participant-lifeline" data-entity-uid="part3" data-qualified-name="DB" id="part3-lifeline"><g><title>Base de Dados</title><rect fill="#000000" fill-opacity="0.00000" height="229.218" width="8" x="522.8933" y="84.0679"/><line style="stroke:#181818;stroke-width:0.5;stroke-dasharray:5,5;" x1="526.2924" x2="526.2924" y1="84.0679" y2="313.2859"/></g></g><g class="participant participant-head" data-entity-uid="part1" data-qualified-name="Cliente" id="part1-head"><text fill="#000000" font-family="sans-serif" font-size="14" lengthAdjust="spacing" textLength="45.5698" x="20" y="79.9659">Cliente</text><ellipse cx="45.7849" cy="13.5" fill="#E2E2F0" rx="8" ry="8" style="stroke:#181818;stroke-width:0.5;"/><path d="M45.7849,21.5 L45.7849,48.5 M32.7849,29.5 L58.7849,29.5 M45.7849,48.5 L32.7849,63.5 M45.7849,48.5 L58.7849,63.5" fill="none" style="stroke:#181818;stroke-width:0.5;"/></g><g class="participant participant-tail" data-entity-uid="part1" data-qualified-name="Cliente" id="part1-tail"><text fill="#000000" font-family="sans-serif" font-size="14" lengthAdjust="spacing" textLength="45.5698" x="20" y="327.2518">Cliente</text><ellipse cx="45.7849" cy="339.8538" fill="#E2E2F0" rx="8" ry="8" style="stroke:#181818;stroke-width:0.5;"/><path d="M45.7849,347.8538 L45.7849,374.8538 M32.7849,355.8538 L58.7849,355.8538 M45.7849,374.8538 L32.7849,389.8538 M45.7849,374.8538 L58.7849,389.8538" fill="none" style="stroke:#181818;stroke-width:0.5;"/></g><g class="participant participant-head" data-entity-uid="part2" data-qualified-name="S" id="part2-head"><rect fill="#E2E2F0" height="33.0679" rx="2.5" ry="2.5" style="stroke:#181818;stroke-width:0.5;" width="65.8978" x="243.2372" y="50"/><text fill="#000000" font-family="sans-serif" font-size="14" lengthAdjust="spacing" textLength="51.8978" x="250.2372" y="71.9659">Sistema</text></g><g class="participant participant-tail" data-entity-uid="part2" data-qualified-name="S" id="part2-tail"><rect fill="#E2E2F0" height="33.0679" rx="2.5" ry="2.5" style="stroke:#181818;stroke-width:0.5;" width="65.8978" x="243.2372" y="312.2859"/><text fill="#000000" font-family="sans-serif" font-size="14" lengthAdjust="spacing" textLength="51.8978" x="250.2372" y="334.2518">Sistema</text></g><g class="participant participant-head" data-entity-uid="part3" data-qualified-name="DB" id="part3-head"><text fill="#000000" font-family="sans-serif" font-size="14" lengthAdjust="spacing" textLength="97.2016" x="475.2924" y="79.9659">Base de Dados</text><path d="M508.8933,29 C508.8933,19 526.8933,19 526.8933,19 C526.8933,19 544.8933,19 544.8933,29 L544.8933,55 C544.8933,65 526.8933,65 526.8933,65 C526.8933,65 508.8933,65 508.8933,55 L508.8933,29" fill="#E2E2F0" style="stroke:#181818;stroke-width:0.5;"/><path d="M508.8933,29 C508.8933,39 526.8933,39 526.8933,39 C526.8933,39 544.8933,39 544.8933,29" fill="none" style="stroke:#181818;stroke-width:0.5;"/></g><g class="participant participant-tail" data-entity-uid="part3" data-qualified-name="DB" id="part3-tail"><text fill="#000000" font-family="sans-serif" font-size="14" lengthAdjust="spacing" textLength="97.2016" x="475.2924" y="327.2518">Base de Dados</text><path d="M508.8933,341.3538 C508.8933,331.3538 526.8933,331.3538 526.8933,331.3538 C526.8933,331.3538 544.8933,331.3538 544.8933,341.3538 L544.8933,367.3538 C544.8933,377.3538 526.8933,377.3538 526.8933,377.3538 C526.8933,377.3538 508.8933,377.3538 508.8933,367.3538 L508.8933,341.3538" fill="#E2E2F0" style="stroke:#181818;stroke-width:0.5;"/><path d="M508.8933,341.3538 C508.8933,351.3538 526.8933,351.3538 526.8933,351.3538 C526.8933,351.3538 544.8933,351.3538 544.8933,341.3538" fill="none" style="stroke:#181818;stroke-width:0.5;"/></g><g class="message" data-entity-1="part1" data-entity-2="part2" id="msg1"><polygon fill="#181818" points="264.1861,113.7739,274.1861,117.7739,264.1861,121.7739,268.1861,117.7739" style="stroke:#181818;stroke-width:1;"/><line style="stroke:#181818;stroke-width:1;" x1="45.7849" x2="270.1861" y1="117.7739" y2="117.7739"/><text fill="#000000" font-family="sans-serif" font-size="13" lengthAdjust="spacing" textLength="206.4012" x="52.7849" y="111.9649">1. FiltrarEspecifica&#231;&#245;esDeServi&#231;o()</text></g><g class="message" data-entity-1="part2" data-entity-2="part3" id="msg2"><polygon fill="#181818" points="514.8933,145.4799,524.8933,149.4799,514.8933,153.4799,518.8933,149.4799" style="stroke:#181818;stroke-width:1;"/><line style="stroke:#181818;stroke-width:1;" x1="276.1861" x2="520.8933" y1="149.4799" y2="149.4799"/><text fill="#000000" font-family="sans-serif" font-size="13" lengthAdjust="spacing" textLength="214.6692" x="283.1861" y="143.6709">1.1 ConsultarPrestadoresPorFiltro()</text></g><g class="message" data-entity-1="part3" data-entity-2="part2" id="msg3"><polygon fill="#181818" points="287.1861,177.186,277.1861,181.186,287.1861,185.186,283.1861,181.186" style="stroke:#181818;stroke-width:1;"/><line style="stroke:#181818;stroke-width:1;stroke-dasharray:2,2;" x1="281.1861" x2="525.8933" y1="181.186" y2="181.186"/><text fill="#000000" font-family="sans-serif" font-size="13" lengthAdjust="spacing" textLength="226.7072" x="293.1861" y="175.377">RetornarListaFiltradaDePrestadores()</text></g><path d="M10,196.186 L71.5588,196.186 L71.5588,205.892 L61.5588,215.892 L10,215.892 L10,196.186" fill="#EEEEEE" style="stroke:#000000;stroke-width:1.5;"/><rect fill="none" height="100.0999" style="stroke:#000000;stroke-width:1.5;" width="309.135" x="10" y="196.186"/><text fill="#000000" font-family="sans-serif" font-size="13" font-weight="bold" lengthAdjust="spacing" textLength="16.5588" x="25" y="211.083">alt</text><text fill="#000000" font-family="sans-serif" font-size="11" font-weight="bold" lengthAdjust="spacing" textLength="130.3794" x="86.5588" y="209.9449">[Lista filtrada n&#227;o vazia]</text><g class="message" data-entity-1="part2" data-entity-2="part1" id="msg4"><polygon fill="#181818" points="56.7849,235.598,46.7849,239.598,56.7849,243.598,52.7849,239.598" style="stroke:#181818;stroke-width:1;"/><line style="stroke:#181818;stroke-width:1;stroke-dasharray:2,2;" x1="50.7849" x2="275.1861" y1="239.598" y2="239.598"/><text fill="#000000" font-family="sans-serif" font-size="13" lengthAdjust="spacing" textLength="182.4812" x="62.7849" y="233.789">1.2 ExibirListaDePrestadores()</text></g><line style="stroke:#000000;stroke-width:1;stroke-dasharray:2,2;" x1="10" x2="319.135" y1="248.598" y2="248.598"/><text fill="#000000" font-family="sans-serif" font-size="11" font-weight="bold" lengthAdjust="spacing" textLength="106.8643" x="15" y="260.3569">[Lista filtrada vazia]</text><g class="message" data-entity-1="part2" data-entity-2="part1" id="msg5"><polygon fill="#181818" points="56.7849,284.2859,46.7849,288.2859,56.7849,292.2859,52.7849,288.2859" style="stroke:#181818;stroke-width:1;"/><line style="stroke:#181818;stroke-width:1;stroke-dasharray:2,2;" x1="50.7849" x2="275.1861" y1="288.2859" y2="288.2859"/><text fill="#000000" font-family="sans-serif" font-size="13" lengthAdjust="spacing" textLength="175.6042" x="62.7849" y="282.4769">SolicitarNovoGrupoDeFiltro()</text></g><?plantuml-src TP0nJiGm44LxdsAK2ef5MaeAYgmN6eHM-0IpoQmqal54uza8SHsAFG4doCMmamYXbN1X5tv-yx-nCr7OHQPav0PKuuu7J0PDu6pqZWrWXk1wD3nY9cZQklS47dl9ywrldLiLi7c4y03REtZYQ8gwpmDrVE8EfylqJTbJ81rvkiZDhGiLzstbjx2JbC_HK0zAsOgy70VHsLDXty9ciRzH2PrGNqf2NERqwEdFku8xZ0Op0QSLWJHz2OpuoUYWh30Br-Grn3tiF_Z8Y_XQIB7qlXB-wmeIoqUMCgyoohEU1_7qsuHI_mC0?></g></svg>