<?plantuml 1.2026.2?><svg xmlns="http://www.w3.org/2000/svg" xmlns:xlink="http://www.w3.org/1999/xlink" contentStyleType="text/css" data-diagram-type="SEQUENCE" height="977px" preserveAspectRatio="none" style="width:702px;height:977px;background:#FFFFFF;" version="1.1" viewBox="0 0 702 977" width="702px" zoomAndPan="magnify"><defs/><g><rect fill="none" height="51.412" style="stroke:#000000;stroke-width:1.5;" width="449.3435" x="30" y="164.4799"/><rect fill="none" height="520.5359" style="stroke:#000000;stroke-width:1.5;" width="489.3435" x="10" y="356.716"/><rect fill="none" height="343.0239" style="stroke:#000000;stroke-width:1.5;" width="469.3435" x="20" y="527.228"/><rect fill="none" height="146.5301" style="stroke:#000000;stroke-width:1.5;" width="449.3435" x="30" y="553.934"/><rect fill="none" height="100.0999" style="stroke:#000000;stroke-width:1.5;" width="449.3435" x="30" y="714.4641"/><g class="participant-lifeline" data-entity-uid="part1" data-qualified-name="Prestador" id="part1-lifeline"><g><title>Prestador de Servi.o</title><rect fill="#000000" fill-opacity="0.00000" height="810.184" width="8" x="106.8438" y="84.0679"/><line style="stroke:#181818;stroke-width:0.5;stroke-dasharray:5,5;" x1="110" x2="110" y1="84.0679" y2="894.252"/></g></g><g class="participant-lifeline" data-entity-uid="part2" data-qualified-name="Cliente" id="part2-lifeline"><g><title>Cliente</title><rect fill="#000000" fill-opacity="0.00000" height="810.184" width="8" x="213.4724" y="84.0679"/><line style="stroke:#181818;stroke-width:0.5;stroke-dasharray:5,5;" x1="216.6875" x2="216.6875" y1="84.0679" y2="894.252"/></g></g><g class="participant-lifeline" data-entity-uid="part3" data-qualified-name="S" id="part3-lifeline"><g><title>Sistema</title><rect fill="#000000" fill-opacity="0.00000" height="810.184" width="8" x="432.3946" y="84.0679"/><line style="stroke:#181818;stroke-width:0.5;stroke-dasharray:5,5;" x1="435.4457" x2="435.4457" y1="84.0679" y2="894.252"/></g></g><g class="participant-lifeline" data-entity-uid="part4" data-qualified-name="DB" id="part4-lifeline"><g><title>Base de Dados</title><rect fill="#000000" fill-opacity="0.00000" height="810.184" width="8" x="645.7138" y="84.0679"/><line style="stroke:#181818;stroke-width:0.5;stroke-dasharray:5,5;" x1="649.1129" x2="649.1129" y1="84.0679" y2="894.252"/></g></g><g class="participant participant-head" data-entity-uid="part1" data-qualified-name="Prestador" id="part1-head"><text fill="#000000" font-family="sans-serif" font-size="14" lengthAdjust="spacing" textLength="135.6875" x="40" y="79.9659">Prestador de Servi&#231;o</text><ellipse cx="110.8438" cy="13.5" fill="#E2E2F0" rx="8" ry="8" style="stroke:#181818;stroke-width:0.5;"/><path d="M110.8438,21.5 L110.8438,48.5 M97.8438,29.5 L123.8438,29.5 M110.8438,48.5 L97.8438,63.5 M110.8438,48.5 L123.8438,63.5" fill="none" style="stroke:#181818;stroke-width:0.5;"/></g><g class="participant participant-tail" data-entity-uid="part1" data-qualified-name="Prestador" id="part1-tail"><text fill="#000000" font-family="sans-serif" font-size="14" lengthAdjust="spacing" textLength="135.6875" x="40" y="908.2179">Prestador de Servi&#231;o</text><ellipse cx="110.8438" cy="920.8199" fill="#E2E2F0" rx="8" ry="8" style="stroke:#181818;stroke-width:0.5;"/><path d="M110.8438,928.8199 L110.8438,955.8199 M97.8438,936.8199 L123.8438,936.8199 M110.8438,955.8199 L97.8438,970.8199 M110.8438,955.8199 L123.8438,970.8199" fill="none" style="stroke:#181818;stroke-width:0.5;"/></g><g class="participant participant-head" data-entity-uid="part2" data-qualified-name="Cliente" id="part2-head"><text fill="#000000" font-family="sans-serif" font-size="14" lengthAdjust="spacing" textLength="45.5698" x="191.6875" y="79.9659">Cliente</text><ellipse cx="217.4724" cy="13.5" fill="#E2E2F0" rx="8" ry="8" style="stroke:#181818;stroke-width:0.5;"/><path d="M217.4724,21.5 L217.4724,48.5 M204.4724,29.5 L230.4724,29.5 M217.4724,48.5 L204.4724,63.5 M217.4724,48.5 L230.4724,63.5" fill="none" style="stroke:#181818;stroke-width:0.5;"/></g><g class="participant participant-tail" data-entity-uid="part2" data-qualified-name="Cliente" id="part2-tail"><text fill="#000000" font-family="sans-serif" font-size="14" lengthAdjust="spacing" textLength="45.5698" x="191.6875" y="908.2179">Cliente</text><ellipse cx="217.4724" cy="920.8199" fill="#E2E2F0" rx="8" ry="8" style="stroke:#181818;stroke-width:0.5;"/><path d="M217.4724,928.8199 L217.4724,955.8199 M204.4724,936.8199 L230.4724,936.8199 M217.4724,955.8199 L204.4724,970.8199 M217.4724,955.8199 L230.4724,970.8199" fill="none" style="stroke:#181818;stroke-width:0.5;"/></g><g class="participant participant-head" data-entity-uid="part3" data-qualified-name="S" id="part3-head"><rect fill="#E2E2F0" height="33.0679" rx="2.5" ry="2.5" style="stroke:#181818;stroke-width:0.5;" width="65.8978" x="403.4457" y="50"/><text fill="#000000" font-family="sans-serif" font-size="14" lengthAdjust="spacing" textLength="51.8978" x="410.4457" y="71.9659">Sistema</text></g><g class="participant participant-tail" data-entity-uid="part3" data-qualified-name="S" id="part3-tail"><rect fill="#E2E2F0" height="33.0679" rx="2.5" ry="2.5" style="stroke:#181818;stroke-width:0.5;" width="65.8978" x="403.4457" y="893.252"/><text fill="#000000" font-family="sans-serif" font-size="14" lengthAdjust="spacing" textLength="51.8978" x="410.4457" y="915.2179">Sistema</text></g><g class="participant participant-head" data-entity-uid="part4" data-qualified-name="DB" id="part4-head"><text fill="#000000" font-family="sans-serif" font-size="14" lengthAdjust="spacing" textLength="97.2016" x="598.1129" y="79.9659">Base de Dados</text><path d="M631.7138,29 C631.7138,19 649.7138,19 649.7138,19 C649.7138,19 667.7138,19 667.7138,29 L667.7138,55 C667.7138,65 649.7138,65 649.7138,65 C649.7138,65 631.7138,65 631.7138,55 L631.7138,29" fill="#E2E2F0" style="stroke:#181818;stroke-width:0.5;"/><path d="M631.7138,29 C631.7138,39 649.7138,39 649.7138,39 C649.7138,39 667.7138,39 667.7138,29" fill="none" style="stroke:#181818;stroke-width:0.5;"/></g><g class="participant participant-tail" data-entity-uid="part4" data-qualified-name="DB" id="part4-tail"><text fill="#000000" font-family="sans-serif" font-size="14" lengthAdjust="spacing" textLength="97.2016" x="598.1129" y="908.2179">Base de Dados</text><path d="M631.7138,922.3199 C631.7138,912.3199 649.7138,912.3199 649.7138,912.3199 C649.7138,912.3199 667.7138,912.3199 667.7138,922.3199 L667.7138,948.3199 C667.7138,958.3199 649.7138,958.3199 649.7138,958.3199 C649.7138,958.3199 631.7138,958.3199 631.7138,948.3199 L631.7138,922.3199" fill="#E2E2F0" style="stroke:#181818;stroke-width:0.5;"/><path d="M631.7138,922.3199 C631.7138,932.3199 649.7138,932.3199 649.7138,932.3199 C649.7138,932.3199 667.7138,932.3199 667.7138,922.3199" fill="none" style="stroke:#181818;stroke-width:0.5;"/></g><g class="message" data-entity-1="part3" data-entity-2="part4" id="msg1"><polygon fill="#181818" points="637.7138,113.7739,647.7138,117.7739,637.7138,121.7739,641.7138,117.7739" style="stroke:#181818;stroke-width:1;"/><line style="stroke:#181818;stroke-width:1;" x1="436.3946" x2="643.7138" y1="117.7739" y2="117.7739"/><text fill="#000000" font-family="sans-serif" font-size="13" lengthAdjust="spacing" textLength="164.7361" x="443.3946" y="111.9649">1. verificarStatusProposta()</text></g><g class="message" data-entity-1="part4" data-entity-2="part3" id="msg2"><polygon fill="#181818" points="447.3946,145.4799,437.3946,149.4799,447.3946,153.4799,443.3946,149.4799" style="stroke:#181818;stroke-width:1;"/><line style="stroke:#181818;stroke-width:1;stroke-dasharray:2,2;" x1="441.3946" x2="648.7138" y1="149.4799" y2="149.4799"/><text fill="#000000" font-family="sans-serif" font-size="13" lengthAdjust="spacing" textLength="171.8732" x="453.3946" y="143.6709">RetornarStatusDaProposta()</text></g><path d="M30,164.4799 L91.5588,164.4799 L91.5588,174.186 L81.5588,184.186 L30,184.186 L30,164.4799" fill="#EEEEEE" style="stroke:#000000;stroke-width:1.5;"/><rect fill="none" height="51.412" style="stroke:#000000;stroke-width:1.5;" width="449.3435" x="30" y="164.4799"/><text fill="#000000" font-family="sans-serif" font-size="13" font-weight="bold" lengthAdjust="spacing" textLength="16.5588" x="45" y="179.377">alt</text><text fill="#000000" font-family="sans-serif" font-size="11" font-weight="bold" lengthAdjust="spacing" textLength="92.9164" x="106.5588" y="178.2389">[Proposta aceita]</text><g class="message" data-entity-1="part3" data-entity-2="part1" id="msg3"><polygon fill="#181818" points="121.8438,203.892,111.8438,207.892,121.8438,211.892,117.8438,207.892" style="stroke:#181818;stroke-width:1;"/><line style="stroke:#181818;stroke-width:1;stroke-dasharray:2,2;" x1="115.8438" x2="435.3946" y1="207.892" y2="207.892"/><text fill="#000000" font-family="sans-serif" font-size="13" lengthAdjust="spacing" textLength="175.5002" x="127.8438" y="202.083">SolicitarEnvioDeOr&#231;amento()</text></g><g class="message" data-entity-1="part1" data-entity-2="part3" id="msg4"><polygon fill="#181818" points="424.3946,242.598,434.3946,246.598,424.3946,250.598,428.3946,246.598" style="stroke:#181818;stroke-width:1;"/><line style="stroke:#181818;stroke-width:1;" x1="110.8438" x2="430.3946" y1="246.598" y2="246.598"/><text fill="#000000" font-family="sans-serif" font-size="13" lengthAdjust="spacing" textLength="129.1161" x="117.8438" y="240.789">2. EnviarOrcamento()</text></g><g class="message" data-entity-1="part3" data-entity-2="part4" id="msg5"><polygon fill="#181818" points="637.7138,274.304,647.7138,278.304,637.7138,282.304,641.7138,278.304" style="stroke:#181818;stroke-width:1;"/><line style="stroke:#181818;stroke-width:1;" x1="436.3946" x2="643.7138" y1="278.304" y2="278.304"/><text fill="#000000" font-family="sans-serif" font-size="13" lengthAdjust="spacing" textLength="154.3882" x="443.3946" y="272.495">2.1 RegistrarOrcamento()</text></g><g class="message" data-entity-1="part4" data-entity-2="part3" id="msg6"><polygon fill="#181818" points="447.3946,306.01,437.3946,310.01,447.3946,314.01,443.3946,310.01" style="stroke:#181818;stroke-width:1;"/><line style="stroke:#181818;stroke-width:1;stroke-dasharray:2,2;" x1="441.3946" x2="648.7138" y1="310.01" y2="310.01"/><text fill="#000000" font-family="sans-serif" font-size="13" lengthAdjust="spacing" textLength="189.3192" x="453.3946" y="304.201">RetornarOr&#231;amentRegistrado()</text></g><g class="message" data-entity-1="part3" data-entity-2="part2" id="msg7"><polygon fill="#181818" points="228.4724,337.716,218.4724,341.716,228.4724,345.716,224.4724,341.716" style="stroke:#181818;stroke-width:1;"/><line style="stroke:#181818;stroke-width:1;stroke-dasharray:2,2;" x1="222.4724" x2="435.3946" y1="341.716" y2="341.716"/><text fill="#000000" font-family="sans-serif" font-size="13" lengthAdjust="spacing" textLength="170.5602" x="234.4724" y="335.907">EnviarOrcamentoProposto()</text></g><path d="M10,356.716 L71.5588,356.716 L71.5588,366.4221 L61.5588,376.4221 L10,376.4221 L10,356.716" fill="#EEEEEE" style="stroke:#000000;stroke-width:1.5;"/><rect fill="none" height="520.5359" style="stroke:#000000;stroke-width:1.5;" width="489.3435" x="10" y="356.716"/><text fill="#000000" font-family="sans-serif" font-size="13" font-weight="bold" lengthAdjust="spacing" textLength="16.5588" x="25" y="371.6131">alt</text><text fill="#000000" font-family="sans-serif" font-size="11" font-weight="bold" lengthAdjust="spacing" textLength="86.2037" x="86.5588" y="370.475">[Usu&#225;rio aceita]</text><g class="message" data-entity-1="part2" data-entity-2="part3" id="msg8"><polygon fill="#181818" points="424.3946,396.1281,434.3946,400.1281,424.3946,404.1281,428.3946,400.1281" style="stroke:#181818;stroke-width:1;"/><line style="stroke:#181818;stroke-width:1;" x1="217.4724" x2="430.3946" y1="400.1281" y2="400.1281"/><text fill="#000000" font-family="sans-serif" font-size="13" lengthAdjust="spacing" textLength="119.5221" x="224.4724" y="394.3191">AceitarOrcamento()</text></g><g class="message" data-entity-1="part3" data-entity-2="part1" id="msg9"><polygon fill="#181818" points="121.8438,427.8341,111.8438,431.8341,121.8438,435.8341,117.8438,431.8341" style="stroke:#181818;stroke-width:1;"/><line style="stroke:#181818;stroke-width:1;stroke-dasharray:2,2;" x1="115.8438" x2="435.3946" y1="431.8341" y2="431.8341"/><text fill="#000000" font-family="sans-serif" font-size="13" lengthAdjust="spacing" textLength="185.0552" x="127.8438" y="426.0251">RetornarAceiteDeOrcamento()</text></g><line style="stroke:#000000;stroke-width:1;stroke-dasharray:2,2;" x1="10" x2="499.3435" y1="440.8341" y2="440.8341"/><text fill="#000000" font-family="sans-serif" font-size="11" font-weight="bold" lengthAdjust="spacing" textLength="89.8336" x="15" y="452.593">[Usu&#225;rio recusa]</text><g class="message" data-entity-1="part2" data-entity-2="part3" id="msg10"><polygon fill="#181818" points="424.3946,476.522,434.3946,480.522,424.3946,484.522,428.3946,480.522" style="stroke:#181818;stroke-width:1;"/><line style="stroke:#181818;stroke-width:1;" x1="217.4724" x2="430.3946" y1="480.522" y2="480.522"/><text fill="#000000" font-family="sans-serif" font-size="13" lengthAdjust="spacing" textLength="125.5151" x="224.4724" y="474.713">RecusarOrcamento()</text></g><g class="message" data-entity-1="part3" data-entity-2="part1" id="msg11"><polygon fill="#181818" points="121.8438,508.228,111.8438,512.228,121.8438,516.228,117.8438,512.228" style="stroke:#181818;stroke-width:1;"/><line style="stroke:#181818;stroke-width:1;stroke-dasharray:2,2;" x1="115.8438" x2="435.3946" y1="512.228" y2="512.228"/><text fill="#000000" font-family="sans-serif" font-size="13" lengthAdjust="spacing" textLength="191.0092" x="127.8438" y="506.419">RetornarRecusaDeOrcamento()</text></g><path d="M20,527.228 L81.5588,527.228 L81.5588,536.934 L71.5588,546.934 L20,546.934 L20,527.228" fill="#EEEEEE" style="stroke:#000000;stroke-width:1.5;"/><rect fill="none" height="343.0239" style="stroke:#000000;stroke-width:1.5;" width="469.3435" x="20" y="527.228"/><text fill="#000000" font-family="sans-serif" font-size="13" font-weight="bold" lengthAdjust="spacing" textLength="16.5588" x="35" y="542.125">alt</text><text fill="#000000" font-family="sans-serif" font-size="11" font-weight="bold" lengthAdjust="spacing" textLength="130.0549" x="96.5588" y="540.9869">[Usu&#225;rio quer negociar]</text><path d="M30,553.934 L103.704,553.934 L103.704,563.6401 L93.704,573.6401 L30,573.6401 L30,553.934" fill="#EEEEEE" style="stroke:#000000;stroke-width:1.5;"/><rect fill="none" height="146.5301" style="stroke:#000000;stroke-width:1.5;" width="449.3435" x="30" y="553.934"/><text fill="#000000" font-family="sans-serif" font-size="13" font-weight="bold" lengthAdjust="spacing" textLength="28.704" x="45" y="568.831">loop</text><text fill="#000000" font-family="sans-serif" font-size="11" font-weight="bold" lengthAdjust="spacing" textLength="176.1419" x="118.704" y="567.6929">[Negocia&#231;&#227;o de contraproposta]</text><g class="message" data-entity-1="part2" data-entity-2="part3" id="msg12"><polygon fill="#181818" points="424.3946,593.3461,434.3946,597.3461,424.3946,601.3461,428.3946,597.3461" style="stroke:#181818;stroke-width:1;"/><line style="stroke:#181818;stroke-width:1;" x1="217.4724" x2="430.3946" y1="597.3461" y2="597.3461"/><text fill="#000000" font-family="sans-serif" font-size="13" lengthAdjust="spacing" textLength="142.4541" x="224.4724" y="591.5371">EnviarContraproposta()</text></g><g class="message" data-entity-1="part3" data-entity-2="part1" id="msg13"><polygon fill="#181818" points="121.8438,625.0521,111.8438,629.0521,121.8438,633.0521,117.8438,629.0521" style="stroke:#181818;stroke-width:1;"/><line style="stroke:#181818;stroke-width:1;" x1="115.8438" x2="435.3946" y1="629.0521" y2="629.0521"/><text fill="#000000" font-family="sans-serif" font-size="13" lengthAdjust="spacing" textLength="158.6131" x="127.8438" y="623.2431">RetornarContraproposta()</text></g><g class="message" data-entity-1="part1" data-entity-2="part3" id="msg14"><polygon fill="#181818" points="424.3946,656.7581,434.3946,660.7581,424.3946,664.7581,428.3946,660.7581" style="stroke:#181818;stroke-width:1;"/><line style="stroke:#181818;stroke-width:1;" x1="110.8438" x2="430.3946" y1="660.7581" y2="660.7581"/><text fill="#000000" font-family="sans-serif" font-size="13" lengthAdjust="spacing" textLength="170.8072" x="117.8438" y="654.9491">ResponderContraproposta()</text></g><g class="message" data-entity-1="part3" data-entity-2="part2" id="msg15"><polygon fill="#181818" points="228.4724,688.4641,218.4724,692.4641,228.4724,696.4641,224.4724,692.4641" style="stroke:#181818;stroke-width:1;"/><line style="stroke:#181818;stroke-width:1;" x1="222.4724" x2="435.3946" y1="692.4641" y2="692.4641"/><text fill="#000000" font-family="sans-serif" font-size="13" lengthAdjust="spacing" textLength="194.9222" x="234.4724" y="686.6551">RetornarRespostaDoPrestador()</text></g><path d="M30,714.4641 L91.5588,714.4641 L91.5588,724.1701 L81.5588,734.1701 L30,734.1701 L30,714.4641" fill="#EEEEEE" style="stroke:#000000;stroke-width:1.5;"/><rect fill="none" height="100.0999" style="stroke:#000000;stroke-width:1.5;" width="449.3435" x="30" y="714.4641"/><text fill="#000000" font-family="sans-serif" font-size="13" font-weight="bold" lengthAdjust="spacing" textLength="16.5588" x="45" y="729.3611">alt</text><text fill="#000000" font-family="sans-serif" font-size="11" font-weight="bold" lengthAdjust="spacing" textLength="194.685" x="106.5588" y="728.223">[Negocia&#231;&#227;o finalizada com acordo]</text><g class="message" data-entity-1="part3" data-entity-2="part1" id="msg16"><polygon fill="#181818" points="121.8438,753.8762,111.8438,757.8762,121.8438,761.8762,117.8438,757.8762" style="stroke:#181818;stroke-width:1;"/><line style="stroke:#181818;stroke-width:1;stroke-dasharray:2,2;" x1="115.8438" x2="435.3946" y1="757.8762" y2="757.8762"/><text fill="#000000" font-family="sans-serif" font-size="13" lengthAdjust="spacing" textLength="187.2781" x="127.8438" y="752.0671">RetornarAceiteDeNegociacao()</text></g><line style="stroke:#000000;stroke-width:1;stroke-dasharray:2,2;" x1="30" x2="479.3435" y1="766.8762" y2="766.8762"/><text fill="#000000" font-family="sans-serif" font-size="11" font-weight="bold" lengthAdjust="spacing" textLength="197.0142" x="35" y="778.6351">[Negocia&#231;&#227;o encerrada sem acordo]</text><g class="message" data-entity-1="part3" data-entity-2="part1" id="msg17"><polygon fill="#181818" points="121.8438,802.5641,111.8438,806.5641,121.8438,810.5641,117.8438,806.5641" style="stroke:#181818;stroke-width:1;"/><line style="stroke:#181818;stroke-width:1;stroke-dasharray:2,2;" x1="115.8438" x2="435.3946" y1="806.5641" y2="806.5641"/><text fill="#000000" font-family="sans-serif" font-size="13" lengthAdjust="spacing" textLength="193.2321" x="127.8438" y="800.7551">RetornarRecusaDeNegociacao()</text></g><line style="stroke:#000000;stroke-width:1;stroke-dasharray:2,2;" x1="20" x2="489.3435" y1="822.5641" y2="822.5641"/><text fill="#000000" font-family="sans-serif" font-size="11" font-weight="bold" lengthAdjust="spacing" textLength="163.3984" x="25" y="834.323">[Usu&#225;rio n&#227;o deseja negociar]</text><g class="message" data-entity-1="part3" data-entity-2="part1" id="msg18"><polygon fill="#181818" points="121.8438,858.252,111.8438,862.252,121.8438,866.252,117.8438,862.252" style="stroke:#181818;stroke-width:1;"/><line style="stroke:#181818;stroke-width:1;stroke-dasharray:2,2;" x1="115.8438" x2="435.3946" y1="862.252" y2="862.252"/><text fill="#000000" font-family="sans-serif" font-size="13" lengthAdjust="spacing" textLength="193.2321" x="127.8438" y="856.443">RetornarRecusaDeNegociacao()</text></g><?plantuml-src bLB1Rjim3BthAuYSraC3jCSS2YprhciHOn_0ocoXmH4zIibXVpFia0_nZvMIPITEWg8LO4Cs7_aU7uasii3YMIX4RFJQ4DGaUzSVU04OO8eOpD37rf6FP3gKwAphq4TOr2v4sc9Eg4s34Lym42pMwQqLAoqGShHQ6rF3xODULd2tX3s9UtKMfOuOT-5Pk6Fb-tPZgZNSAgvUmOQKs8-G2az01ji8upUW9HVHW9uw9q_YLr1pgt8ZoW-_TrpHa_G7t6ehh6N8DyOSFHXexvUGi2XFOYVafFr-UQV2thHncICkTKzK8xufbHHMx5oTKvMUUEpnLzZr_yJnQOybjyZzdWCpALUD65LbF2KZZWdKwhmcAY6x2zUeDZdmUQe1FwVA6RFE_kn8mDCRMpKYXzDfcJluEVpj3_r_JljasQkDNPdxXBrKEhZwE8CNjUF94xqY-iEayrtPKEZOD_G9gcdYHtT21bSyLJt9IwivtfDTCojUdSVM_SK6rPAjxWPBm-UK7u-_rBF8fwHf3sPCv2s99A90NoCQXt-Tg7GtNpm_Z3dGRxnSYAyJ9PBql0C0?></g></svg>