<?plantuml 1.2026.2?><svg xmlns="http://www.w3.org/2000/svg" xmlns:xlink="http://www.w3.org/1999/xlink" contentStyleType="text/css" data-diagram-type="SEQUENCE" height="568px" preserveAspectRatio="none" style="width:494px;height:568px;background:#FFFFFF;" version="1.1" viewBox="0 0 494 568" width="494px" zoomAndPan="magnify"><defs/><g><g class="participant-lifeline" data-entity-uid="part1" data-qualified-name="Prestador" id="part1-lifeline"><g><title>Prestador de Servi.o</title><rect fill="#000000" fill-opacity="0.00000" height="400.4722" width="8" x="71.8438" y="84.0679"/><line style="stroke:#181818;stroke-width:0.5;stroke-dasharray:5,5;" x1="75" x2="75" y1="84.0679" y2="484.5401"/></g></g><g class="participant-lifeline" data-entity-uid="part2" data-qualified-name="S" id="part2-lifeline"><g><title>Sistema</title><rect fill="#000000" fill-opacity="0.00000" height="400.4722" width="8" x="237.5309" y="84.0679"/><line style="stroke:#181818;stroke-width:0.5;stroke-dasharray:5,5;" x1="240.582" x2="240.582" y1="84.0679" y2="484.5401"/></g></g><g class="participant-lifeline" data-entity-uid="part3" data-qualified-name="DB" id="part3-lifeline"><g><title>Base de Dados</title><rect fill="#000000" fill-opacity="0.00000" height="400.4722" width="8" x="438.123" y="84.0679"/><line style="stroke:#181818;stroke-width:0.5;stroke-dasharray:5,5;" x1="441.5222" x2="441.5222" y1="84.0679" y2="484.5401"/></g></g><g class="participant participant-head" data-entity-uid="part1" data-qualified-name="Prestador" id="part1-head"><text fill="#000000" font-family="sans-serif" font-size="14" lengthAdjust="spacing" textLength="135.6875" x="5" y="79.9659">Prestador de Servi&#231;o</text><ellipse cx="75.8438" cy="13.5" fill="#E2E2F0" rx="8" ry="8" style="stroke:#181818;stroke-width:0.5;"/><path d="M75.8438,21.5 L75.8438,48.5 M62.8438,29.5 L88.8438,29.5 M75.8438,48.5 L62.8438,63.5 M75.8438,48.5 L88.8438,63.5" fill="none" style="stroke:#181818;stroke-width:0.5;"/></g><g class="participant participant-tail" data-entity-uid="part1" data-qualified-name="Prestador" id="part1-tail"><text fill="#000000" font-family="sans-serif" font-size="14" lengthAdjust="spacing" textLength="135.6875" x="5" y="498.5061">Prestador de Servi&#231;o</text><ellipse cx="75.8438" cy="511.108" fill="#E2E2F0" rx="8" ry="8" style="stroke:#181818;stroke-width:0.5;"/><path d="M75.8438,519.108 L75.8438,546.108 M62.8438,527.108 L88.8438,527.108 M75.8438,546.108 L62.8438,561.108 M75.8438,546.108 L88.8438,561.108" fill="none" style="stroke:#181818;stroke-width:0.5;"/></g><g class="participant participant-head" data-entity-uid="part2" data-qualified-name="S" id="part2-head"><rect fill="#E2E2F0" height="33.0679" rx="2.5" ry="2.5" style="stroke:#181818;stroke-width:0.5;" width="65.8978" x="208.582" y="50"/><text fill="#000000" font-family="sans-serif" font-size="14" lengthAdjust="spacing" textLength="51.8978" x="215.582" y="71.9659">Sistema</text></g><g class="participant participant-tail" data-entity-uid="part2" data-qualified-name="S" id="part2-tail"><rect fill="#E2E2F0" height="33.0679" rx="2.5" ry="2.5" style="stroke:#181818;stroke-width:0.5;" width="65.8978" x="208.582" y="483.5401"/><text fill="#000000" font-family="sans-serif" font-size="14" lengthAdjust="spacing" textLength="51.8978" x="215.582" y="505.5061">Sistema</text></g><g class="participant participant-head" data-entity-uid="part3" data-qualified-name="DB" id="part3-head"><text fill="#000000" font-family="sans-serif" font-size="14" lengthAdjust="spacing" textLength="97.2016" x="390.5222" y="79.9659">Base de Dados</text><path d="M424.123,29 C424.123,19 442.123,19 442.123,19 C442.123,19 460.123,19 460.123,29 L460.123,55 C460.123,65 442.123,65 442.123,65 C442.123,65 424.123,65 424.123,55 L424.123,29" fill="#E2E2F0" style="stroke:#181818;stroke-width:0.5;"/><path d="M424.123,29 C424.123,39 442.123,39 442.123,39 C442.123,39 460.123,39 460.123,29" fill="none" style="stroke:#181818;stroke-width:0.5;"/></g><g class="participant participant-tail" data-entity-uid="part3" data-qualified-name="DB" id="part3-tail"><text fill="#000000" font-family="sans-serif" font-size="14" lengthAdjust="spacing" textLength="97.2016" x="390.5222" y="498.5061">Base de Dados</text><path d="M424.123,512.608 C424.123,502.608 442.123,502.608 442.123,502.608 C442.123,502.608 460.123,502.608 460.123,512.608 L460.123,538.608 C460.123,548.608 442.123,548.608 442.123,548.608 C442.123,548.608 424.123,548.608 424.123,538.608 L424.123,512.608" fill="#E2E2F0" style="stroke:#181818;stroke-width:0.5;"/><path d="M424.123,512.608 C424.123,522.608 442.123,522.608 442.123,522.608 C442.123,522.608 460.123,522.608 460.123,512.608" fill="none" style="stroke:#181818;stroke-width:0.5;"/></g><g class="message" data-entity-1="part1" data-entity-2="part2" id="msg1"><polygon fill="#181818" points="229.5309,113.7739,239.5309,117.7739,229.5309,121.7739,233.5309,117.7739" style="stroke:#181818;stroke-width:1;"/><line style="stroke:#181818;stroke-width:1;" x1="75.8438" x2="235.5309" y1="117.7739" y2="117.7739"/><text fill="#000000" font-family="sans-serif" font-size="13" lengthAdjust="spacing" textLength="141.6871" x="82.8438" y="111.9649">1. VisualizarPropostas()</text></g><g class="message" data-entity-1="part2" data-entity-2="part3" id="msg2"><polygon fill="#181818" points="430.123,145.4799,440.123,149.4799,430.123,153.4799,434.123,149.4799" style="stroke:#181818;stroke-width:1;"/><line style="stroke:#181818;stroke-width:1;" x1="241.5309" x2="436.123" y1="149.4799" y2="149.4799"/><text fill="#000000" font-family="sans-serif" font-size="13" lengthAdjust="spacing" textLength="150.0201" x="248.5309" y="143.6709">1.1 ConsultarPropostas()</text></g><g class="message" data-entity-1="part3" data-entity-2="part2" id="msg3"><polygon fill="#181818" points="252.5309,177.186,242.5309,181.186,252.5309,185.186,248.5309,181.186" style="stroke:#181818;stroke-width:1;"/><line style="stroke:#181818;stroke-width:1;stroke-dasharray:2,2;" x1="246.5309" x2="441.123" y1="181.186" y2="181.186"/><text fill="#000000" font-family="sans-serif" font-size="13" lengthAdjust="spacing" textLength="168.4411" x="258.5309" y="175.377">RetornarListaDePropostas()</text></g><g class="message" data-entity-1="part2" data-entity-2="part1" id="msg4"><polygon fill="#181818" points="86.8438,208.892,76.8438,212.892,86.8438,216.892,82.8438,212.892" style="stroke:#181818;stroke-width:1;"/><line style="stroke:#181818;stroke-width:1;stroke-dasharray:2,2;" x1="80.8438" x2="240.5309" y1="212.892" y2="212.892"/><text fill="#000000" font-family="sans-serif" font-size="13" lengthAdjust="spacing" textLength="125.1121" x="92.8438" y="207.083">1.2 ExibirPropostas()</text></g><g class="message" data-entity-1="part1" data-entity-2="part2" id="msg5"><polygon fill="#181818" points="229.5309,240.598,239.5309,244.598,229.5309,248.598,233.5309,244.598" style="stroke:#181818;stroke-width:1;"/><line style="stroke:#181818;stroke-width:1;" x1="75.8438" x2="235.5309" y1="244.598" y2="244.598"/><text fill="#000000" font-family="sans-serif" font-size="13" lengthAdjust="spacing" textLength="119.8601" x="82.8438" y="238.789">2. AceitarProposta()</text></g><g class="message" data-entity-1="part2" data-entity-2="part3" id="msg6"><polygon fill="#181818" points="430.123,272.304,440.123,276.304,430.123,280.304,434.123,276.304" style="stroke:#181818;stroke-width:1;"/><line style="stroke:#181818;stroke-width:1;" x1="241.5309" x2="436.123" y1="276.304" y2="276.304"/><text fill="#000000" font-family="sans-serif" font-size="13" lengthAdjust="spacing" textLength="176.5922" x="248.5309" y="270.495">2.1 AtualizarStatusProposta()</text></g><g class="message" data-entity-1="part3" data-entity-2="part2" id="msg7"><polygon fill="#181818" points="252.5309,304.01,242.5309,308.01,252.5309,312.01,248.5309,308.01" style="stroke:#181818;stroke-width:1;"/><line style="stroke:#181818;stroke-width:1;stroke-dasharray:2,2;" x1="246.5309" x2="441.123" y1="308.01" y2="308.01"/><text fill="#000000" font-family="sans-serif" font-size="13" lengthAdjust="spacing" textLength="154.2321" x="258.5309" y="302.201">RetornarPropostaAceita()</text></g><g class="message" data-entity-1="part2" data-entity-2="part1" id="msg8"><polygon fill="#181818" points="86.8438,335.716,76.8438,339.716,86.8438,343.716,82.8438,339.716" style="stroke:#181818;stroke-width:1;"/><line style="stroke:#181818;stroke-width:1;stroke-dasharray:2,2;" x1="80.8438" x2="240.5309" y1="339.716" y2="339.716"/><text fill="#000000" font-family="sans-serif" font-size="13" lengthAdjust="spacing" textLength="128.9211" x="92.8438" y="333.907">2.2 ConfirmarAceite()</text></g><g class="message" data-entity-1="part1" data-entity-2="part2" id="msg9"><polygon fill="#181818" points="229.5309,367.4221,239.5309,371.4221,229.5309,375.4221,233.5309,371.4221" style="stroke:#181818;stroke-width:1;"/><line style="stroke:#181818;stroke-width:1;" x1="75.8438" x2="235.5309" y1="371.4221" y2="371.4221"/><text fill="#000000" font-family="sans-serif" font-size="13" lengthAdjust="spacing" textLength="125.8531" x="82.8438" y="365.6131">2. RecusarProposta()</text></g><g class="message" data-entity-1="part2" data-entity-2="part3" id="msg10"><polygon fill="#181818" points="430.123,399.1281,440.123,403.1281,430.123,407.1281,434.123,403.1281" style="stroke:#181818;stroke-width:1;"/><line style="stroke:#181818;stroke-width:1;" x1="241.5309" x2="436.123" y1="403.1281" y2="403.1281"/><text fill="#000000" font-family="sans-serif" font-size="13" lengthAdjust="spacing" textLength="176.5922" x="248.5309" y="397.3191">2.1 AtualizarStatusProposta()</text></g><g class="message" data-entity-1="part3" data-entity-2="part2" id="msg11"><polygon fill="#181818" points="252.5309,430.8341,242.5309,434.8341,252.5309,438.8341,248.5309,434.8341" style="stroke:#181818;stroke-width:1;"/><line style="stroke:#181818;stroke-width:1;stroke-dasharray:2,2;" x1="246.5309" x2="441.123" y1="434.8341" y2="434.8341"/><text fill="#000000" font-family="sans-serif" font-size="13" lengthAdjust="spacing" textLength="175.5132" x="258.5309" y="429.0251">RetornarPropostaRecusada()</text></g><g class="message" data-entity-1="part2" data-entity-2="part1" id="msg12"><polygon fill="#181818" points="86.8438,462.5401,76.8438,466.5401,86.8438,470.5401,82.8438,466.5401" style="stroke:#181818;stroke-width:1;"/><line style="stroke:#181818;stroke-width:1;stroke-dasharray:2,2;" x1="80.8438" x2="240.5309" y1="466.5401" y2="466.5401"/><text fill="#000000" font-family="sans-serif" font-size="13" lengthAdjust="spacing" textLength="134.8751" x="92.8438" y="460.7311">2.2 ConfirmarRecusa()</text></g><?plantuml-src hO-nRi8m441tVyKf4mmWaR539LApTK1OOZ-IgtGIn97lKY5-g1_I7-EI00sbLPSkbgLxVlUCfSO4sJgHA5PshGW2fNV-_8WPeC1juXfCoYKtM2jaWKNfW3qIN8MAEnI2hEXEStXx8ltK5yvzwMVF49vWCOSjIujxFc5QfzX46yjawa87-A8Z5l0IQsdtUa_u0cQ3P4EMNcDwjHJqz4rZp6rhfyjXTUGTtxaUkl8vB4lYqSfnKsvDIxrK1qLjPOGzXbs7W_AdhDoox9Tld0wOUen-oTfGsSh_PWtAwk-m0PnCpm00?></g></svg>