<?plantuml 1.2026.2?><svg xmlns="http://www.w3.org/2000/svg" xmlns:xlink="http://www.w3.org/1999/xlink" contentStyleType="text/css" data-diagram-type="CLASS" height="388px" preserveAspectRatio="none" style="width:391px;height:388px;background:#FFFFFF;" version="1.1" viewBox="0 0 391 388" width="391px" zoomAndPan="magnify"><defs/><g><!--class Usuario--><g class="entity" data-qualified-name="Usuario" data-source-line="4" id="ent0002"><rect fill="#F1F1F1" height="97.2038" rx="2.5" ry="2.5" style="stroke:#181818;stroke-width:0.5;" width="127.0796" x="112.81" y="7"/><ellipse cx="147.5064" cy="23" fill="#ADD1B2" rx="11" ry="11" style="stroke:#181818;stroke-width:1;"/><path d="M147.6158,18.5313 Q146.6939,18.5313 145.9595,18.8438 Q145.2408,19.1563 144.7408,19.75 Q144.2408,20.3281 143.9595,21.2031 Q143.6939,22.0781 143.6939,23.1719 Q143.6939,24.6094 144.1314,25.6563 Q144.5845,26.7031 145.4283,27.25 Q146.2877,27.7969 147.6002,27.7969 Q148.3814,27.7969 149.0689,27.6719 Q149.772,27.5313 150.772,27.2188 L150.772,29.0938 Q149.9127,29.4219 149.147,29.5469 Q148.397,29.6719 147.3814,29.6719 Q145.4595,29.6719 144.147,28.875 Q142.8502,28.0625 142.1939,26.5938 Q141.5377,25.1094 141.5377,23.1406 Q141.5377,21.7188 141.9283,20.5469 Q142.3345,19.3594 143.1158,18.4844 Q143.897,17.6094 145.0377,17.1406 Q146.1783,16.6563 147.647,16.6563 Q148.6002,16.6563 149.4908,16.8594 Q150.397,17.0469 151.3345,17.5156 L150.5064,19.2969 Q149.7252,18.9219 149.0689,18.7344 Q148.4127,18.5313 147.6158,18.5313 Z " fill="#000000"/><text fill="#000000" font-family="sans-serif" font-size="14" lengthAdjust="spacing" textLength="51.3098" x="165.8834" y="28.432">Usuario</text><line style="stroke:#181818;stroke-width:0.5;" x1="113.81" x2="238.8896" y1="39" y2="39"/><g data-visibility-modifier="PROTECTED_FIELD"><polygon fill="none" points="123.81,49.034,127.81,53.034,123.81,57.034,119.81,53.034" style="stroke:#B38D22;stroke-width:1;"/></g><text fill="#000000" font-family="sans-serif" font-size="14" lengthAdjust="spacing" textLength="84.8957" x="132.81" y="57.9659">nome: String</text><g data-visibility-modifier="PROTECTED_FIELD"><polygon fill="none" points="123.81,68.1019,127.81,72.1019,123.81,76.1019,119.81,72.1019" style="stroke:#B38D22;stroke-width:1;"/></g><text fill="#000000" font-family="sans-serif" font-size="14" lengthAdjust="spacing" textLength="101.0796" x="132.81" y="77.0339">telefone: String</text><g data-visibility-modifier="PROTECTED_FIELD"><polygon fill="none" points="123.81,87.1698,127.81,91.1698,123.81,95.1698,119.81,91.1698" style="stroke:#B38D22;stroke-width:1;"/></g><text fill="#000000" font-family="sans-serif" font-size="14" lengthAdjust="spacing" textLength="82.8517" x="132.81" y="96.1018">email: String</text></g><!--class Cliente--><g class="entity" data-qualified-name="Cliente" data-source-line="10" id="ent0003"><rect fill="#F1F1F1" height="59.0679" rx="2.5" ry="2.5" style="stroke:#181818;stroke-width:0.5;" width="134.7096" x="7" y="165.21"/><ellipse cx="47.7129" cy="181.21" fill="#ADD1B2" rx="11" ry="11" style="stroke:#181818;stroke-width:1;"/><path d="M47.8223,176.7413 Q46.9004,176.7413 46.166,177.0538 Q45.4473,177.3663 44.9473,177.96 Q44.4473,178.5381 44.166,179.4131 Q43.9004,180.2881 43.9004,181.3819 Q43.9004,182.8194 44.3379,183.8663 Q44.791,184.9131 45.6348,185.46 Q46.4941,186.0069 47.8066,186.0069 Q48.5879,186.0069 49.2754,185.8819 Q49.9785,185.7413 50.9785,185.4288 L50.9785,187.3038 Q50.1191,187.6319 49.3535,187.7569 Q48.6035,187.8819 47.5879,187.8819 Q45.666,187.8819 44.3535,187.085 Q43.0566,186.2725 42.4004,184.8038 Q41.7441,183.3194 41.7441,181.3506 Q41.7441,179.9288 42.1348,178.7569 Q42.541,177.5694 43.3223,176.6944 Q44.1035,175.8194 45.2441,175.3506 Q46.3848,174.8663 47.8535,174.8663 Q48.8066,174.8663 49.6973,175.0694 Q50.6035,175.2569 51.541,175.7256 L50.7129,177.5069 Q49.9316,177.1319 49.2754,176.9444 Q48.6191,176.7413 47.8223,176.7413 Z " fill="#000000"/><text fill="#000000" font-family="sans-serif" font-size="14" lengthAdjust="spacing" textLength="45.5698" x="67.4269" y="186.642">Cliente</text><line style="stroke:#181818;stroke-width:0.5;" x1="8" x2="140.7096" y1="197.21" y2="197.21"/><g data-visibility-modifier="PRIVATE_FIELD"><rect fill="none" height="6" style="stroke:#C82930;stroke-width:1;" width="6" x="15" y="209.244"/></g><text fill="#000000" font-family="sans-serif" font-size="14" lengthAdjust="spacing" textLength="108.7096" x="27" y="216.1759">endereco: String</text></g><!--class Prestador--><g class="entity" data-qualified-name="Prestador" data-source-line="13" id="ent0004"><rect fill="#F1F1F1" height="59.0679" rx="2.5" ry="2.5" style="stroke:#181818;stroke-width:0.5;" width="207.7053" x="176.5" y="165.21"/><ellipse cx="243.7908" cy="181.21" fill="#ADD1B2" rx="11" ry="11" style="stroke:#181818;stroke-width:1;"/><path d="M243.9001,176.7413 Q242.9783,176.7413 242.2439,177.0538 Q241.5251,177.3663 241.0251,177.96 Q240.5251,178.5381 240.2439,179.4131 Q239.9783,180.2881 239.9783,181.3819 Q239.9783,182.8194 240.4158,183.8663 Q240.8689,184.9131 241.7126,185.46 Q242.572,186.0069 243.8845,186.0069 Q244.6658,186.0069 245.3533,185.8819 Q246.0564,185.7413 247.0564,185.4288 L247.0564,187.3038 Q246.197,187.6319 245.4314,187.7569 Q244.6814,187.8819 243.6658,187.8819 Q241.7439,187.8819 240.4314,187.085 Q239.1345,186.2725 238.4783,184.8038 Q237.822,183.3194 237.822,181.3506 Q237.822,179.9288 238.2126,178.7569 Q238.6189,177.5694 239.4001,176.6944 Q240.1814,175.8194 241.322,175.3506 Q242.4626,174.8663 243.9314,174.8663 Q244.8845,174.8663 245.7751,175.0694 Q246.6814,175.2569 247.6189,175.7256 L246.7908,177.5069 Q246.0095,177.1319 245.3533,176.9444 Q244.697,176.7413 243.9001,176.7413 Z " fill="#000000"/><text fill="#000000" font-family="sans-serif" font-size="14" lengthAdjust="spacing" textLength="64.6238" x="264.2908" y="186.642">Prestador</text><line style="stroke:#181818;stroke-width:0.5;" x1="177.5" x2="383.2053" y1="197.21" y2="197.21"/><g data-visibility-modifier="PRIVATE_FIELD"><rect fill="none" height="6" style="stroke:#C82930;stroke-width:1;" width="6" x="184.5" y="209.244"/></g><text fill="#000000" font-family="sans-serif" font-size="14" lengthAdjust="spacing" textLength="181.7053" x="196.5" y="216.1759">especialidades: List&lt;String&gt;</text></g><!--class Servico--><g class="entity" data-qualified-name="Servico" data-source-line="17" id="ent0005"><rect fill="#F1F1F1" height="78.1358" rx="2.5" ry="2.5" style="stroke:#181818;stroke-width:0.5;" width="235.2852" x="58.71" y="303.27"/><ellipse cx="148.4637" cy="319.27" fill="#ADD1B2" rx="11" ry="11" style="stroke:#181818;stroke-width:1;"/><path d="M148.5731,314.8013 Q147.6512,314.8013 146.9168,315.1138 Q146.1981,315.4263 145.6981,316.02 Q145.1981,316.5981 144.9168,317.4731 Q144.6512,318.3481 144.6512,319.4419 Q144.6512,320.8794 145.0887,321.9263 Q145.5418,322.9731 146.3856,323.52 Q147.2449,324.0669 148.5574,324.0669 Q149.3387,324.0669 150.0262,323.9419 Q150.7293,323.8013 151.7293,323.4888 L151.7293,325.3638 Q150.8699,325.6919 150.1043,325.8169 Q149.3543,325.9419 148.3387,325.9419 Q146.4168,325.9419 145.1043,325.145 Q143.8074,324.3325 143.1512,322.8638 Q142.4949,321.3794 142.4949,319.4106 Q142.4949,317.9888 142.8856,316.8169 Q143.2918,315.6294 144.0731,314.7544 Q144.8543,313.8794 145.9949,313.4106 Q147.1356,312.9263 148.6043,312.9263 Q149.5574,312.9263 150.4481,313.1294 Q151.3543,313.3169 152.2918,313.7856 L151.4637,315.5669 Q150.6824,315.1919 150.0262,315.0044 Q149.3699,314.8013 148.5731,314.8013 Z " fill="#000000"/><text fill="#000000" font-family="sans-serif" font-size="14" lengthAdjust="spacing" textLength="47.2778" x="168.9637" y="324.702">Servico</text><line style="stroke:#181818;stroke-width:0.5;" x1="59.71" x2="292.9952" y1="335.27" y2="335.27"/><g data-visibility-modifier="PRIVATE_FIELD"><rect fill="none" height="6" style="stroke:#C82930;stroke-width:1;" width="6" x="66.71" y="347.304"/></g><text fill="#000000" font-family="sans-serif" font-size="14" lengthAdjust="spacing" textLength="109.1576" x="78.71" y="354.2359">descricao: String</text><g data-visibility-modifier="PRIVATE_FIELD"><rect fill="none" height="6" style="stroke:#C82930;stroke-width:1;" width="6" x="66.71" y="366.3719"/></g><text fill="#000000" font-family="sans-serif" font-size="14" lengthAdjust="spacing" textLength="209.2852" x="78.71" y="373.3039">dataDeAgendamento: Datetime</text></g><!--reverse link Usuario to Cliente--><g class="link" data-entity-1="ent0002" data-entity-2="ent0003" data-link-type="extension" data-source-line="23" id="lnk6"><path codeLine="23" d="M129.9353,119.0113 C114.9953,139.0913 108.87,147.33 95.89,164.79" fill="none" id="Usuario-backto-Cliente" style="stroke:#181818;stroke-width:1;"/><polygon fill="none" points="140.68,104.57,125.1215,115.4298,134.7491,122.5929,140.68,104.57" style="stroke:#181818;stroke-width:1;"/></g><!--reverse link Usuario to Prestador--><g class="link" data-entity-1="ent0002" data-entity-2="ent0004" data-link-type="extension" data-source-line="24" id="lnk7"><path codeLine="24" d="M223.6075,118.9115 C238.8375,138.9915 245.16,147.33 258.4,164.79" fill="none" id="Usuario-backto-Prestador" style="stroke:#181818;stroke-width:1;"/><polygon fill="none" points="212.73,104.57,218.827,122.5374,228.3881,115.2857,212.73,104.57" style="stroke:#181818;stroke-width:1;"/></g><!--link Cliente to Servico--><g class="link" data-entity-1="ent0003" data-entity-2="ent0005" data-link-type="association" data-source-line="26" id="lnk8"><path codeLine="26" d="M94.51,224.51 C110.24,246.97 132.25,278.38 149.48,302.98" fill="none" id="Cliente-Servico" style="stroke:#181818;stroke-width:1;"/><text fill="#000000" font-family="sans-serif" font-size="13" lengthAdjust="spacing" textLength="53.456" x="129.41" y="269.167">Contrata</text><text fill="#000000" font-family="sans-serif" font-size="13" lengthAdjust="spacing" textLength="7.436" x="90.9901" y="246.3722">1</text><text fill="#000000" font-family="sans-serif" font-size="13" lengthAdjust="spacing" textLength="21.567" x="121.8735" y="291.4152">0..*</text></g><!--link Prestador to Servico--><g class="link" data-entity-1="ent0004" data-entity-2="ent0005" data-link-type="association" data-source-line="27" id="lnk9"><path codeLine="27" d="M259.81,224.51 C243.77,246.97 221.33,278.38 203.75,302.98" fill="none" id="Prestador-Servico" style="stroke:#181818;stroke-width:1;"/><text fill="#000000" font-family="sans-serif" font-size="13" lengthAdjust="spacing" textLength="42.822" x="238.67" y="269.167">Realiza</text><text fill="#000000" font-family="sans-serif" font-size="13" lengthAdjust="spacing" textLength="7.436" x="247.8962" y="246.3722">1</text><text fill="#000000" font-family="sans-serif" font-size="13" lengthAdjust="spacing" textLength="21.567" x="185.8104" y="291.4152">0..*</text></g><?plantuml-src TL1BIaGn4Dpd54rS2C8RTFiO19ctd8KuU80sgHaRyXcIAFWxZGiFCXSp-dxEWDa4ggkhg-fHB0X-Nrx8mpyWPQNEgSDMWXo-3f-HB6SoZdD6Lhy_tUSdJXBfJL5zPnIYHqkRaYJi1gZ0OHl3AGpFuYRiGms2AoS81ODWGmWM2IR-OVR4suHSsCOqK_CUHjY9POlSqbfoMVPRr_E13TApc3XjLQf9OZWU-Qiu5-vmiwi6s5TBTTvnGH6F7x6JOcAc1CT6OkZPMOtLBD-RPenr34uHb1fZwojDTQ8l5uiBFNbjIQzYAAbQqceE_Y_v3hM5LzRV?></g></svg>