<?plantuml 1.2026.2?><svg xmlns="http://www.w3.org/2000/svg" xmlns:xlink="http://www.w3.org/1999/xlink" contentStyleType="text/css" data-diagram-type="CLASS" height="250px" preserveAspectRatio="none" style="width:223px;height:250px;background:#FFFFFF;" version="1.1" viewBox="0 0 223 250" width="223px" zoomAndPan="magnify"><defs/><g><!--class Usuario--><g class="entity" data-qualified-name="Usuario" data-source-line="4" id="ent0002"><rect fill="#F1F1F1" height="32" rx="2.5" ry="2.5" style="stroke:#181818;stroke-width:0.5;" width="83.3098" x="64.13" y="7"/><ellipse cx="79.13" cy="23" fill="#ADD1B2" rx="11" ry="11" style="stroke:#181818;stroke-width:1;"/><path d="M79.2394,18.5313 Q78.3175,18.5313 77.5831,18.8438 Q76.8644,19.1563 76.3644,19.75 Q75.8644,20.3281 75.5831,21.2031 Q75.3175,22.0781 75.3175,23.1719 Q75.3175,24.6094 75.755,25.6563 Q76.2081,26.7031 77.0519,27.25 Q77.9113,27.7969 79.2238,27.7969 Q80.005,27.7969 80.6925,27.6719 Q81.3956,27.5313 82.3956,27.2188 L82.3956,29.0938 Q81.5363,29.4219 80.7706,29.5469 Q80.0206,29.6719 79.005,29.6719 Q77.0831,29.6719 75.7706,28.875 Q74.4738,28.0625 73.8175,26.5938 Q73.1613,25.1094 73.1613,23.1406 Q73.1613,21.7188 73.5519,20.5469 Q73.9581,19.3594 74.7394,18.4844 Q75.5206,17.6094 76.6613,17.1406 Q77.8019,16.6563 79.2706,16.6563 Q80.2238,16.6563 81.1144,16.8594 Q82.0206,17.0469 82.9581,17.5156 L82.13,19.2969 Q81.3488,18.9219 80.6925,18.7344 Q80.0363,18.5313 79.2394,18.5313 Z " fill="#000000"/><text fill="#000000" font-family="sans-serif" font-size="14" lengthAdjust="spacing" textLength="51.3098" x="93.13" y="28.432">Usuario</text></g><!--class Cliente--><g class="entity" data-qualified-name="Cliente" data-source-line="5" id="ent0003"><rect fill="#F1F1F1" height="32" rx="2.5" ry="2.5" style="stroke:#181818;stroke-width:0.5;" width="77.5698" x="7" y="100"/><ellipse cx="22" cy="116" fill="#ADD1B2" rx="11" ry="11" style="stroke:#181818;stroke-width:1;"/><path d="M22.1094,111.5313 Q21.1875,111.5313 20.4531,111.8438 Q19.7344,112.1563 19.2344,112.75 Q18.7344,113.3281 18.4531,114.2031 Q18.1875,115.0781 18.1875,116.1719 Q18.1875,117.6094 18.625,118.6563 Q19.0781,119.7031 19.9219,120.25 Q20.7813,120.7969 22.0938,120.7969 Q22.875,120.7969 23.5625,120.6719 Q24.2656,120.5313 25.2656,120.2188 L25.2656,122.0938 Q24.4063,122.4219 23.6406,122.5469 Q22.8906,122.6719 21.875,122.6719 Q19.9531,122.6719 18.6406,121.875 Q17.3438,121.0625 16.6875,119.5938 Q16.0313,118.1094 16.0313,116.1406 Q16.0313,114.7188 16.4219,113.5469 Q16.8281,112.3594 17.6094,111.4844 Q18.3906,110.6094 19.5313,110.1406 Q20.6719,109.6563 22.1406,109.6563 Q23.0938,109.6563 23.9844,109.8594 Q24.8906,110.0469 25.8281,110.5156 L25,112.2969 Q24.2188,111.9219 23.5625,111.7344 Q22.9063,111.5313 22.1094,111.5313 Z " fill="#000000"/><text fill="#000000" font-family="sans-serif" font-size="14" lengthAdjust="spacing" textLength="45.5698" x="36" y="121.432">Cliente</text></g><!--class Prestador--><g class="entity" data-qualified-name="Prestador" data-source-line="6" id="ent0004"><rect fill="#F1F1F1" height="32" rx="2.5" ry="2.5" style="stroke:#181818;stroke-width:0.5;" width="96.6238" x="119.47" y="100"/><ellipse cx="134.47" cy="116" fill="#ADD1B2" rx="11" ry="11" style="stroke:#181818;stroke-width:1;"/><path d="M134.5794,111.5313 Q133.6575,111.5313 132.9231,111.8438 Q132.2044,112.1563 131.7044,112.75 Q131.2044,113.3281 130.9231,114.2031 Q130.6575,115.0781 130.6575,116.1719 Q130.6575,117.6094 131.095,118.6563 Q131.5481,119.7031 132.3919,120.25 Q133.2513,120.7969 134.5638,120.7969 Q135.345,120.7969 136.0325,120.6719 Q136.7356,120.5313 137.7356,120.2188 L137.7356,122.0938 Q136.8763,122.4219 136.1106,122.5469 Q135.3606,122.6719 134.345,122.6719 Q132.4231,122.6719 131.1106,121.875 Q129.8138,121.0625 129.1575,119.5938 Q128.5013,118.1094 128.5013,116.1406 Q128.5013,114.7188 128.8919,113.5469 Q129.2981,112.3594 130.0794,111.4844 Q130.8606,110.6094 132.0013,110.1406 Q133.1419,109.6563 134.6106,109.6563 Q135.5638,109.6563 136.4544,109.8594 Q137.3606,110.0469 138.2981,110.5156 L137.47,112.2969 Q136.6888,111.9219 136.0325,111.7344 Q135.3763,111.5313 134.5794,111.5313 Z " fill="#000000"/><text fill="#000000" font-family="sans-serif" font-size="14" lengthAdjust="spacing" textLength="64.6238" x="148.47" y="121.432">Prestador</text></g><!--class Servico--><g class="entity" data-qualified-name="Servico" data-source-line="8" id="ent0005"><rect fill="#F1F1F1" height="32" rx="2.5" ry="2.5" style="stroke:#181818;stroke-width:0.5;" width="79.2778" x="66.15" y="211"/><ellipse cx="81.15" cy="227" fill="#ADD1B2" rx="11" ry="11" style="stroke:#181818;stroke-width:1;"/><path d="M81.2594,222.5313 Q80.3375,222.5313 79.6031,222.8438 Q78.8844,223.1563 78.3844,223.75 Q77.8844,224.3281 77.6031,225.2031 Q77.3375,226.0781 77.3375,227.1719 Q77.3375,228.6094 77.775,229.6563 Q78.2281,230.7031 79.0719,231.25 Q79.9313,231.7969 81.2438,231.7969 Q82.025,231.7969 82.7125,231.6719 Q83.4156,231.5313 84.4156,231.2188 L84.4156,233.0938 Q83.5563,233.4219 82.7906,233.5469 Q82.0406,233.6719 81.025,233.6719 Q79.1031,233.6719 77.7906,232.875 Q76.4938,232.0625 75.8375,230.5938 Q75.1813,229.1094 75.1813,227.1406 Q75.1813,225.7188 75.5719,224.5469 Q75.9781,223.3594 76.7594,222.4844 Q77.5406,221.6094 78.6813,221.1406 Q79.8219,220.6563 81.2906,220.6563 Q82.2438,220.6563 83.1344,220.8594 Q84.0406,221.0469 84.9781,221.5156 L84.15,223.2969 Q83.3688,222.9219 82.7125,222.7344 Q82.0563,222.5313 81.2594,222.5313 Z " fill="#000000"/><text fill="#000000" font-family="sans-serif" font-size="14" lengthAdjust="spacing" textLength="47.2778" x="95.15" y="232.432">Servico</text></g><!--reverse link Usuario to Cliente--><g class="link" data-entity-1="ent0002" data-entity-2="ent0003" data-link-type="extension" data-source-line="11" id="lnk6"><path codeLine="11" d="M85.6997,54.4662 C74.5997,71.2962 66.85,83.05 55.81,99.79" fill="none" id="Usuario-backto-Cliente" style="stroke:#181818;stroke-width:1;"/><polygon fill="none" points="95.61,39.44,80.691,51.1627,90.7084,57.7696,95.61,39.44" style="stroke:#181818;stroke-width:1;"/></g><!--reverse link Usuario to Prestador--><g class="link" data-entity-1="ent0002" data-entity-2="ent0004" data-link-type="extension" data-source-line="12" id="lnk7"><path codeLine="12" d="M126.437,54.3141 C137.907,71.1441 146.01,83.05 157.42,99.79" fill="none" id="Usuario-backto-Prestador" style="stroke:#181818;stroke-width:1;"/><polygon fill="none" points="116.3,39.44,121.479,57.6932,131.3951,50.9351,116.3,39.44" style="stroke:#181818;stroke-width:1;"/></g><!--link Cliente to Servico--><g class="link" data-entity-1="ent0003" data-entity-2="ent0005" data-link-type="association" data-source-line="14" id="lnk8"><path codeLine="14" d="M47.65,132.29 C49.79,145.79 54.18,165.66 62.78,181 C69.02,192.12 78.65,202.55 87.21,210.56" fill="none" id="Cliente-Servico" style="stroke:#181818;stroke-width:1;"/><text fill="#000000" font-family="sans-serif" font-size="13" lengthAdjust="spacing" textLength="53.456" x="63.78" y="176.897">Contrata</text><text fill="#000000" font-family="sans-serif" font-size="13" lengthAdjust="spacing" textLength="7.436" x="40.2161" y="153.8871">1</text><text fill="#000000" font-family="sans-serif" font-size="13" lengthAdjust="spacing" textLength="21.567" x="56.6715" y="199.3126">0..*</text></g><!--link Prestador to Servico--><g class="link" data-entity-1="ent0004" data-entity-2="ent0005" data-link-type="association" data-source-line="15" id="lnk9"><path codeLine="15" d="M159.16,132.16 C147.39,152.86 126.38,189.8 114.53,210.62" fill="none" id="Prestador-Servico" style="stroke:#181818;stroke-width:1;"/><text fill="#000000" font-family="sans-serif" font-size="13" lengthAdjust="spacing" textLength="42.822" x="141.5" y="176.897">Realiza</text><text fill="#000000" font-family="sans-serif" font-size="13" lengthAdjust="spacing" textLength="7.436" x="148.3656" y="154.0299">1</text><text fill="#000000" font-family="sans-serif" font-size="13" lengthAdjust="spacing" textLength="21.567" x="93.0228" y="199.0859">0..*</text></g><?plantuml-src TOr12W8n34NtFKN8HX16T2lknWE8uW7YJCH0sqXJ1SNRkF0WSp47gOCYhZx___oNWxGC78xv0e73ZfCvDu8bxoLAz-Zk2YqPD9xCsDnBOMidIgB5rLuuPYvkbTWojPfS2JQSpjBe3rKD4djgH2E57g3c2XSMjweQi5_X1xtqW3E4li7fP3B6zpUO0zOQSw9Cw8RL_-CravShuHC0?></g></svg>